<mxfile host="app.diagrams.net" modified="2022-10-05T15:00:17.808Z" agent="5.0 (Windows)" etag="Gv_gaAbrZ1uawhmWyXeC" version="20.4.0" type="github">
  <diagram id="qogbHMF2WECLjnla78s_" name="Page-1">
    <mxGraphModel dx="1422" dy="772" grid="1" gridSize="10" guides="1" tooltips="1" connect="1" arrows="1" fold="1" page="1" pageScale="1" pageWidth="827" pageHeight="1169" math="0" shadow="0">
      <root>
        <mxCell id="0" />
        <mxCell id="1" parent="0" />
        <mxCell id="lTb2LRMEJDSldLxrj2Hd-5" style="edgeStyle=orthogonalEdgeStyle;rounded=0;orthogonalLoop=1;jettySize=auto;html=1;" edge="1" parent="1" source="lTb2LRMEJDSldLxrj2Hd-1" target="lTb2LRMEJDSldLxrj2Hd-2">
          <mxGeometry relative="1" as="geometry" />
        </mxCell>
        <mxCell id="lTb2LRMEJDSldLxrj2Hd-6" style="edgeStyle=orthogonalEdgeStyle;rounded=0;orthogonalLoop=1;jettySize=auto;html=1;" edge="1" parent="1" source="lTb2LRMEJDSldLxrj2Hd-1" target="lTb2LRMEJDSldLxrj2Hd-3">
          <mxGeometry relative="1" as="geometry" />
        </mxCell>
        <mxCell id="lTb2LRMEJDSldLxrj2Hd-7" style="edgeStyle=orthogonalEdgeStyle;rounded=0;orthogonalLoop=1;jettySize=auto;html=1;" edge="1" parent="1" source="lTb2LRMEJDSldLxrj2Hd-1" target="lTb2LRMEJDSldLxrj2Hd-4">
          <mxGeometry relative="1" as="geometry" />
        </mxCell>
        <mxCell id="lTb2LRMEJDSldLxrj2Hd-1" value="Storage System" style="rounded=0;whiteSpace=wrap;html=1;" vertex="1" parent="1">
          <mxGeometry x="354" y="50" width="120" height="60" as="geometry" />
        </mxCell>
        <mxCell id="lTb2LRMEJDSldLxrj2Hd-2" value="Create databases" style="rounded=1;whiteSpace=wrap;html=1;" vertex="1" parent="1">
          <mxGeometry x="110" y="200" width="120" height="60" as="geometry" />
        </mxCell>
        <mxCell id="lTb2LRMEJDSldLxrj2Hd-3" value="Populate databases" style="rounded=1;whiteSpace=wrap;html=1;" vertex="1" parent="1">
          <mxGeometry x="354" y="200" width="120" height="60" as="geometry" />
        </mxCell>
        <mxCell id="lTb2LRMEJDSldLxrj2Hd-4" value="Report on databases (and clean)" style="rounded=1;whiteSpace=wrap;html=1;" vertex="1" parent="1">
          <mxGeometry x="580" y="200" width="120" height="60" as="geometry" />
        </mxCell>
      </root>
    </mxGraphModel>
  </diagram>
</mxfile>
